<svg xmlns="http://www.w3.org/2000/svg" width="1600" height="900" viewBox="0 0 1600 900" role="img" aria-label="Mondee Travel Platform banner">
  <defs>
    <linearGradient id="bg2" x1="0%" y1="0%" x2="100%" y2="100%">
      <stop offset="0%" stop-color="#101827"/>
      <stop offset="45%" stop-color="#1e293b"/>
      <stop offset="100%" stop-color="#3b1c3f"/>
    </linearGradient>
    <linearGradient id="line" x1="0%" y1="0%" x2="100%" y2="0%">
      <stop offset="0%" stop-color="#66d9ff"/>
      <stop offset="50%" stop-color="#8d9bff"/>
      <stop offset="100%" stop-color="#f472b6"/>
    </linearGradient>
    <radialGradient id="haze" cx="50%" cy="50%" r="60%">
      <stop offset="0%" stop-color="#7dd3fc" stop-opacity="0.38"/>
      <stop offset="100%" stop-color="#7dd3fc" stop-opacity="0"/>
    </radialGradient>
  </defs>

  <rect width="1600" height="900" fill="url(#bg2)"/>
  <circle cx="310" cy="170" r="240" fill="url(#haze)"/>
  <circle cx="1320" cy="730" r="290" fill="url(#haze)" opacity="0.75"/>
  <rect x="70" y="72" width="1460" height="756" rx="34" fill="#ffffff" fill-opacity="0.05" stroke="#c4b5fd" stroke-opacity="0.32"/>

  <text x="120" y="220" fill="#f8fafc" font-family="Segoe UI, Arial, sans-serif" font-size="66" font-weight="700">
    Mondee Travel Platform
  </text>
  <text x="120" y="280" fill="#c4b5fd" font-family="Segoe UI, Arial, sans-serif" font-size="30" font-weight="500">
    GCP GKE | Oracle OKE | Elasticsearch
  </text>
  <text x="120" y="355" fill="#e2e8f0" font-family="Segoe UI, Arial, sans-serif" font-size="28">
    Multi-cloud migration, event-driven booking, and AI recommendation workflows
  </text>

  <g transform="translate(120 430)">
    <rect width="660" height="286" rx="20" fill="#0f172a" stroke="#94a3b8" stroke-opacity="0.4"/>
    <rect x="32" y="38" width="170" height="78" rx="12" fill="#1d4ed8"/>
    <rect x="242" y="38" width="170" height="78" rx="12" fill="#7c3aed"/>
    <rect x="452" y="38" width="176" height="78" rx="12" fill="#0f766e"/>
    <rect x="32" y="150" width="282" height="104" rx="12" fill="#1e293b"/>
    <rect x="346" y="150" width="282" height="104" rx="12" fill="#172554"/>

    <text x="52" y="87" fill="#f8fafc" font-family="Segoe UI, Arial, sans-serif" font-size="22" font-weight="600">GCP GKE</text>
    <text x="264" y="87" fill="#f8fafc" font-family="Segoe UI, Arial, sans-serif" font-size="22" font-weight="600">Oracle OKE</text>
    <text x="474" y="87" fill="#f8fafc" font-family="Segoe UI, Arial, sans-serif" font-size="22" font-weight="600">Elasticsearch</text>
    <text x="52" y="212" fill="#dbeafe" font-family="Segoe UI, Arial, sans-serif" font-size="20">Cloud Functions + Pub/Sub + RabbitMQ</text>
    <text x="366" y="212" fill="#dbeafe" font-family="Segoe UI, Arial, sans-serif" font-size="20">Agentic AI + Routing + Observability</text>
  </g>

  <g transform="translate(860 430)">
    <ellipse cx="300" cy="130" rx="240" ry="72" fill="none" stroke="url(#line)" stroke-width="7"/>
    <ellipse cx="300" cy="130" rx="182" ry="52" fill="none" stroke="url(#line)" stroke-width="5" opacity="0.75"/>
    <ellipse cx="300" cy="130" rx="124" ry="35" fill="none" stroke="url(#line)" stroke-width="4" opacity="0.6"/>

    <circle cx="120" cy="130" r="22" fill="#67e8f9"/>
    <circle cx="300" cy="130" r="28" fill="#a78bfa"/>
    <circle cx="480" cy="130" r="22" fill="#f9a8d4"/>
    <line x1="142" y1="130" x2="272" y2="130" stroke="#94a3b8" stroke-width="4"/>
    <line x1="328" y1="130" x2="458" y2="130" stroke="#94a3b8" stroke-width="4"/>

    <path d="M120 250c80-65 200-65 280 0" fill="none" stroke="#94a3b8" stroke-width="4" stroke-linecap="round"/>
    <path d="M170 286c58-40 142-40 200 0" fill="none" stroke="#94a3b8" stroke-width="4" stroke-linecap="round"/>
  </g>
</svg>
